<?xml version="1.0" encoding="UTF-8" standalone="no"?>
<svg
   version="1.1"
   id="elephant-logo"
   width="2000"
   height="2000"
   viewBox="0 0 2000 2000"
   xmlns="http://www.w3.org/2000/svg">
  <defs>
    <clipPath
       clipPathUnits="userSpaceOnUse"
       id="clipPath4">
      <path
         d="M 0,1500 H 1500 V 0 H 0 Z"
         transform="translate(-580.16311,-347.97451)" />
    </clipPath>
    <clipPath
       clipPathUnits="userSpaceOnUse"
       id="clipPath6">
      <path
         d="M 0,1500 H 1500 V 0 H 0 Z"
         transform="translate(-742.09922,-193.66808)" />
    </clipPath>
  </defs>
  <g id="elephant">
    <path
       d="M 0,0 -241.084,247.038 -70.63,409.697 c -36.359,24.28 -78,31.173 -126.169,21.08 -51.905,-10.874 -91.646,-38.177 -93.617,-39.55 l -46.721,-34.163 -25.621,52.078 c -1.257,2.515 -30.875,62.573 -36.845,146.001 -8.015,112.016 29.525,214.306 108.563,295.813 103.441,106.674 207.321,108.741 276.247,91.695 71.837,-17.768 118.737,-59.045 123.848,-63.693 l -65.912,-72.481 0.215,-0.195 c -0.344,0.305 -34.95,30.632 -84.876,42.027 -62.816,14.335 -123.106,-7.717 -179.191,-65.553 -59.079,-60.926 -86.466,-134.008 -81.4,-217.213 1.472,-24.18 5.576,-45.938 10.157,-63.743 19.925,9.017 44.225,18.043 71.247,24.041 44.016,9.771 86.455,9.762 126.135,-0.031 50.022,-12.345 94.64,-39.931 132.612,-81.992 L 69.971,408.45 -101.775,244.559 -0.858,141.15 164.921,315.206 235.862,247.64 Z"
       style="fill:#000000;fill-opacity:1;fill-rule:nonzero;stroke:#000000;stroke-width:25;stroke-linejoin:round"
       transform="matrix(1.3333333,0,0,-1.3333333,773.5508,1536.034)"
       clip-path="url(#clipPath4)" />
    <path
       d="m 0,0 -68.912,69.636 457.718,452.967 c 95.233,94.245 118.699,241.941 57.062,359.171 -49.201,93.577 -132.78,142.668 -223.586,131.314 -19.766,-2.472 -37.628,-8.553 -53.091,-18.075 -44.948,-27.681 -58.226,-74.303 -55.664,-108.706 2.124,-28.512 15.059,-52.58 32.185,-59.887 18.736,-7.996 47.506,2.295 78.935,28.227 l 62.351,-75.566 c -50.091,-41.331 -93.707,-53.249 -127.335,-53.252 -22.116,-10e-4 -39.908,5.151 -52.398,10.481 -51.478,21.965 -86.515,76.652 -91.436,142.721 -6,80.558 33.08,156.965 101.989,199.401 27.481,16.923 58.538,27.645 92.31,31.868 67.745,8.469 134.463,-5.916 192.945,-41.602 53.172,-32.446 97.955,-81.317 129.509,-141.332 20.298,-38.605 34.049,-79.99 40.872,-123.005 6.64,-41.872 6.595,-84.443 -0.133,-126.531 -6.706,-41.954 -19.895,-82.437 -39.2,-120.324 -19.73,-38.721 -45.436,-73.893 -76.402,-104.539 z"
       style="fill:#000000;fill-opacity:1;fill-rule:nonzero;stroke:#000000;stroke-width:25;stroke-linejoin:round"
       transform="matrix(1.3333333,0,0,-1.3333333,989.4656,1741.7759)"
       clip-path="url(#clipPath6)" />
  </g>
</svg>
